PathFileType	4	(X/Y/Z)	C:\Users\Basilio\Documents\Thesis Gigler\squatting_fais\c3dfiles\054\SLS_back_pre5\markers_experimental.trc
DataRate	CameraRate	NumFrames	NumMarkers	Units	OrigDataRate	OrigDataStartFrame	OrigNumFrames
200.000000	200.000000	4	61	mm	200.000000	0	1480
Frame#	Time	FHD			LBHD			RBHD			C7			T10			CLAV			LSHO			LUUPA			LMUPA			LDUPA			LLEP			LMEP			LRAD			LUL			LRFIN			RSHO			RUPA1			RMUPA			RDUPA			RLEP			RMEP			RRAD			RUL			RUFIN			LASI			RASI			USACR			LSACR			RSACR			LTHI1			LTHI2			LTHI3			LTHI4			LLFC			LMFC			LTIB1			LTIB2			LTIB3			LTIB4			LLMAL			LMMAL			LHEE			LMT1			LMT2			LMT5			RTHI			RTHI2			RTHI3			RTHI4			RLFC			RMFC			RTIB1			RTIB2			RTIB3			RTIB4			RLMAL			RMMAL			RHEE			RMT1			RMT2			RMT5			
		X1	Y1	Z1	X2	Y2	Z2	X3	Y3	Z3	X4	Y4	Z4	X5	Y5	Z5	X6	Y6	Z6	X7	Y7	Z7	X8	Y8	Z8	X9	Y9	Z9	X10	Y10	Z10	X11	Y11	Z11	X12	Y12	Z12	X13	Y13	Z13	X14	Y14	Z14	X15	Y15	Z15	X16	Y16	Z16	X17	Y17	Z17	X18	Y18	Z18	X19	Y19	Z19	X20	Y20	Z20	X21	Y21	Z21	X22	Y22	Z22	X23	Y23	Z23	X24	Y24	Z24	X25	Y25	Z25	X26	Y26	Z26	X27	Y27	Z27	X28	Y28	Z28	X29	Y29	Z29	X30	Y30	Z30	X31	Y31	Z31	X32	Y32	Z32	X33	Y33	Z33	X34	Y34	Z34	X35	Y35	Z35	X36	Y36	Z36	X37	Y37	Z37	X38	Y38	Z38	X39	Y39	Z39	X40	Y40	Z40	X41	Y41	Z41	X42	Y42	Z42	X43	Y43	Z43	X44	Y44	Z44	X45	Y45	Z45	X46	Y46	Z46	X47	Y47	Z47	X48	Y48	Z48	X49	Y49	Z49	X50	Y50	Z50	X51	Y51	Z51	X52	Y52	Z52	X53	Y53	Z53	X54	Y54	Z54	X55	Y55	Z55	X56	Y56	Z56	X57	Y57	Z57	X58	Y58	Z58	X59	Y59	Z59	X60	Y60	Z60	X61	Y61	Z61	

1	0	-225.7722320556641	1788.284057617188	-987.488708496094	-387.5387573242189	1733.137939453125	-1055.289672851563	-401.5866088867189	1729.7548828125	-915.497741699219	-422.6580505371095	1552.668334960938	-975.8746337890627	-413.1367797851564	1221.910766601563	-979.371032714844	-272.1341857910157	1512.37451171875	-987.3042602539065	-354.5587158203126	1556.776489257813	-1135.252807617188	-199.4698486328126	1437.907348632813	-1258.789428710938	-166.3362579345703	1472.095336914063	-1244.705200195313	-129.9906311035157	1429.88525390625	-1268.182006835938	-71.27354431152345	1433.844482421875	-1264.4521484375	-70.18914794921876	1367.578735351563	-1218.1376953125	170.3867797851563	1474.197875976563	-1150.406494140625	197.2076568603516	1441.467895507813	-1215.2900390625	264.1200561523438	1499.4453125	-1157.461303710938	-336.1382446289063	1557.377563476563	-834.196472167969	-180.6737823486328	1432.299438476563	-708.4251098632814	-144.8324584960938	1462.349365234375	-719.3174438476564	-113.1422805786133	1413.946533203125	-697.8286743164064	-67.07884979248048	1407.306762695313	-699.8115844726564	-71.43421936035158	1352.226684570313	-755.4789428710939	165.8532104492188	1496.419311523438	-847.9310302734377	185.45947265625	1465.888671875	-776.6826782226565	236.2692413330079	1539.393798828125	-845.405944824219	-208.9927825927735	1061.238647460938	-1100.590454101563	-213.3154449462891	1068.651611328125	-845.7847290039065	-404.3889160156251	1138.21044921875	-977.801208496094	-409.2021789550782	1105.927124023438	-1005.461181640625	-407.4933471679689	1105.447387695313	-948.9385375976565	-300.1090698242188	819.4687500000002	-1178.759765625	-271.5010070800782	739.6580200195314	-1170.607543945313	-224.561752319336	741.5918579101564	-1162.427490234375	-303.2177124023438	688.8005981445314	-1154.448974609375	-313.6462097167969	534.9373168945314	-1127.676147460938	-287.0296020507813	532.7464599609376	-990.787292480469	-276.6654052734376	371.1441040039063	-1071.263427734375	-325.8277587890626	324.3023681640626	-1128.144653320313	-288.4714050292969	322.0113525390626	-1102.382202148438	-296.8786315917969	245.7548522949219	-1065.734252929688	-359.4871215820313	110.6130905151367	-1101.107055664063	-328.8292236328126	131.7513580322266	-1010.704956054688	-428.363983154297	101.112533569336	-1043.178833007813	-216.7715911865235	57.06567382812501	-1020.883605957031	-208.7592010498047	55.21182250976564	-1070.180786132813	-260.9916687011719	38.36364746093751	-1121.531372070313	-298.2875366210938	771.3638916015627	-745.2224121093751	-260.3280334472657	717.8852539062501	-733.7822875976564	-226.6658172607422	718.6423339843751	-736.2446289062501	-285.0760498046876	638.3832397460939	-744.8058471679689	-293.7103271484376	550.3676757812501	-736.0253906250001	-229.0586090087891	533.0593261718751	-859.5500488281252	-245.7552337646485	439.7076416015626	-724.4494018554689	-326.8389892578126	377.9134216308594	-692.6338500976564	-281.8527221679688	366.3636474609376	-694.4921264648439	-269.3735046386719	311.7940673828126	-710.7500610351564	-350.6691894531251	142.4232482910157	-676.2673950195314	-298.3922424316407	146.9785461425782	-756.2353515625001	-407.9115295410157	121.5799713134766	-740.7001953125001	-197.7030334472657	49.99291610717775	-722.5658569335939	-201.2321166992188	51.62241363525392	-674.5034179687501	-258.6808166503907	43.96697616577149	-634.5279541015626	
2	0.005	-225.8335113525391	1788.311279296875	-988.648620605469	-387.5054931640626	1733.286987304688	-1056.683349609375	-401.8428344726564	1729.823364257813	-917.0314941406252	-422.7942504882814	1552.8427734375	-977.3801879882815	-412.8188781738282	1221.765258789063	-980.9631347656252	-272.4786376953126	1512.47705078125	-988.6607055664065	-354.5316467285157	1556.909545898438	-1136.587524414063	-199.5914916992188	1438.032836914063	-1260.023803710938	-166.3249816894532	1472.103637695313	-1246.136962890625	-129.4965362548828	1429.739624023438	-1269.671752929688	-71.20577239990236	1433.825317382813	-1265.864501953125	-70.52084350585939	1367.636108398438	-1219.17333984375	170.2440795898438	1473.963012695313	-1151.517456054688	198.4633026123047	1440.99462890625	-1216.6669921875	264.3755798339844	1498.984741210938	-1158.392700195313	-336.4770812988282	1557.465087890625	-835.6694335937502	-181.0145111083985	1432.31787109375	-709.4447021484376	-145.2030792236328	1462.38232421875	-720.5239868164064	-113.595573425293	1413.914306640625	-698.8712768554689	-67.50115203857423	1407.316528320313	-700.8527832031251	-71.90283966064455	1352.142822265625	-756.2918701171876	165.5956726074219	1496.212158203125	-848.8453369140627	185.0294647216797	1465.818237304688	-777.5642700195315	235.7468414306641	1539.35595703125	-846.2556762695315	-209.1982879638672	1061.162719726563	-1101.72314453125	-213.8982849121094	1068.882202148438	-846.9376220703127	-404.7412414550782	1138.313720703125	-979.1614990234377	-408.8716430664064	1105.822631835938	-1007.005859375	-407.8790588378907	1105.547607421875	-950.2861328125002	-299.8167724609376	819.1270141601565	-1179.747680664063	-271.5718994140626	739.4589233398439	-1171.57421875	-224.6084747314454	741.5396118164064	-1163.251220703125	-303.1954650878907	688.5856933593751	-1155.140014648438	-313.5927734375001	534.7238159179689	-1128.44873046875	-287.2848815917969	532.7788085937501	-991.4716796875002	-276.8283996582032	371.0020446777344	-1071.659057617188	-325.9561157226563	324.1300354003907	-1128.49609375	-288.5599670410157	321.8613891601563	-1102.681396484375	-296.7046813964844	245.7668762207032	-1066.070922851563	-359.5246276855469	110.549545288086	-1101.185546875	-328.8027954101563	131.7549591064453	-1010.796997070313	-428.3794555664064	101.0976028442383	-1043.2041015625	-216.7612304687501	57.09529495239259	-1020.887451171875	-208.7391052246094	55.21958160400392	-1070.204467773438	-260.9465332031251	38.30318069458009	-1121.548828125	-297.9194946289063	771.4464111328127	-745.8130493164064	-259.7347412109376	718.2762451171876	-734.3692626953126	-226.0984191894532	719.2693481445314	-736.8924560546876	-284.0542907714844	638.7234497070314	-745.3299560546876	-292.2925720214844	550.7590332031251	-736.2565917968751	-229.3789978027344	533.2793579101564	-859.2995605468752	-244.6789703369141	440.1062011718751	-724.6921386718751	-325.8826904296876	378.4301452636719	-692.9652099609376	-280.7477416992188	366.6058044433594	-694.8388671875001	-268.5638122558594	312.1930541992188	-711.0818481445314	-350.1737060546876	143.1017150878907	-676.5441284179689	-297.8474731445313	147.3321380615235	-756.5776977539064	-407.444793701172	122.3093185424805	-740.9736938476564	-197.6359863281251	49.9556350708008	-722.7904052734376	-201.0071105957032	51.71704101562501	-674.6308593750001	-258.5176086425782	44.31888961791993	-634.6168823242189	
3	0.01	-225.7876434326172	1788.416015625	-989.9394531250002	-387.7401733398439	1733.385864257813	-1058.16650390625	-401.842498779297	1729.89453125	-918.4708251953127	-422.8165283203126	1552.934814453125	-978.9913330078127	-413.7147521972657	1222.242309570313	-982.3256835937502	-272.7984313964844	1512.423461914063	-990.042175292969	-354.3968811035157	1557.101928710938	-1138.074951171875	-199.4613647460938	1438.065063476563	-1261.429443359375	-166.2151489257813	1472.101196289063	-1247.37109375	-130.1838684082032	1429.974487304688	-1270.587646484375	-71.10636138916017	1433.890625	-1267.07763671875	-70.43638610839845	1367.643188476563	-1220.561889648438	170.1209716796875	1473.826416015625	-1152.54248046875	198.9806671142579	1440.839721679688	-1218.153198242188	264.2730102539063	1498.769775390625	-1159.402587890625	-336.6059570312501	1557.53466796875	-836.9873046875002	-181.4372100830078	1432.346801757813	-710.7713012695314	-145.5830993652344	1462.4150390625	-721.6087036132814	-114.1014099121094	1414.0888671875	-700.1089477539064	-67.97657775878908	1407.32763671875	-701.8713989257814	-72.32653045654298	1352.121704101563	-757.3226928710939	165.3555145263672	1496.083251953125	-849.7583618164065	184.7030334472657	1465.724853515625	-778.4379882812502	235.4695587158204	1539.241821289063	-847.1270141601565	-209.560287475586	1061.104125976563	-1102.944580078125	-214.5859375000001	1069.112915039063	-847.991638183594	-405.1266174316407	1138.3125	-980.6235961914065	-408.613494873047	1105.818359375	-1008.368835449219	-408.3051147460939	1105.656982421875	-951.6110839843752	-299.9425659179688	818.9671020507815	-1180.744873046875	-271.6124572753907	739.2757568359376	-1172.507446289063	-224.7496185302735	741.3997802734376	-1164.237060546875	-303.3633728027344	688.4351806640626	-1156.103515625	-313.5507507324219	534.5665283203126	-1129.100708007813	-287.2733459472657	532.8462524414064	-992.0402832031252	-276.7336730957032	370.8945312500001	-1072.1162109375	-326.0911254882813	323.8663330078126	-1128.83837890625	-288.5926818847657	321.6968688964844	-1103.089599609375	-296.6591186523438	245.7003326416016	-1066.342041015625	-359.5262451171876	110.4957046508789	-1101.246704101563	-328.8399353027344	131.7746276855469	-1010.89697265625	-428.4054260253907	101.0798873901367	-1043.25390625	-216.7790832519532	57.08214187622072	-1020.912963867188	-208.7686614990235	55.13076019287111	-1070.207397460938	-261.2263488769532	38.27724075317384	-1121.447265625	-297.5140075683594	771.6693115234377	-746.4614868164064	-258.7853088378907	718.6495361328126	-735.1657104492189	-225.2408599853516	719.8854980468751	-737.5859985351564	-283.3332824707032	639.0455932617189	-745.7241821289064	-291.0970764160157	551.1483154296876	-736.5743408203126	-226.6656494140626	533.2976074218751	-860.0620117187502	-243.3854217529297	440.4880676269532	-724.8450927734376	-324.7593078613282	378.9351501464844	-693.4150390625001	-279.6848144531251	366.9200134277344	-695.1443481445314	-267.5379943847657	312.5528564453126	-711.4197998046876	-349.5091552734376	143.8484954833985	-676.8670043945314	-297.2489013671876	147.7033843994141	-756.8456420898439	-406.8488769531251	123.0854263305664	-741.3072509765626	-197.4639129638672	49.88144302368165	-723.0231933593751	-200.8228149414063	51.82857894897462	-674.6773681640626	-258.1318969726563	44.78899002075196	-634.8464965820314	
4	0.015	-225.7674865722657	1788.445678710938	-991.3611450195315	-387.4698791503907	1733.621948242188	-1059.561279296875	-401.8262023925782	1729.938842773438	-919.8498535156252	-422.8960876464845	1553.162109375	-980.5373535156252	-414.0603027343751	1222.380859375	-983.8696289062502	-272.9115905761719	1512.466674804688	-991.5186767578127	-354.2897033691407	1557.272216796875	-1139.583618164063	-198.3081817626954	1437.708740234375	-1261.40185546875	-166.2042541503907	1472.221313476563	-1248.71044921875	-129.9192199707032	1430.008544921875	-1272.013549804688	-71.10725402832033	1433.912719726563	-1268.372802734375	-70.50221252441408	1367.709594726563	-1221.77197265625	169.9922943115235	1473.699096679688	-1153.600341796875	198.796127319336	1440.538696289063	-1219.168212890625	264.2817382812501	1498.503173828125	-1160.418579101563	-336.6782531738282	1557.6171875	-838.5029907226565	-181.8936920166016	1432.453491210938	-711.9465942382814	-146.0330505371094	1462.466918945313	-722.9578857421876	-114.6408157348633	1414.16552734375	-701.1723022460939	-68.56976318359376	1407.212158203125	-702.9037475585939	-72.73249816894533	1352.130249023438	-758.2215576171876	164.9212646484375	1495.881469726563	-850.4598388671877	184.3209381103516	1465.562622070313	-779.2535400390627	234.9926757812501	1539.064331054688	-847.8584594726565	-209.8147430419922	1060.8779296875	-1104.13427734375	-215.1975860595704	1069.25146484375	-849.1843261718752	-405.5061035156251	1138.4541015625	-982.140075683594	-408.7000732421876	1105.917846679688	-1009.753479003906	-408.813201904297	1105.802978515625	-953.0919189453127	-300.1362915039063	818.7760009765627	-1181.829711914063	-271.9505004882813	739.0845947265626	-1173.33251953125	-224.858383178711	741.2707519531251	-1165.144775390625	-303.4266662597657	688.2810668945314	-1157.03759765625	-313.0920410156251	534.2830810546876	-1129.871337890625	-287.1745605468751	532.9360961914064	-992.846130371094	-276.6892089843751	370.8603515625001	-1072.569458007813	-326.1731567382813	323.6578674316407	-1129.227172851563	-288.5444335937501	321.4490661621094	-1103.516235351563	-297.9979553222657	245.5228576660157	-1067.093505859375	-359.7836303710938	110.7416763305664	-1101.216918945313	-328.8328247070313	131.7681121826172	-1011.014831542969	-428.4472656250001	101.0836791992188	-1043.279052734375	-216.7579193115235	57.17528915405275	-1020.956848144531	-208.785385131836	55.12477493286134	-1070.2705078125	-261.2135009765626	38.22819137573243	-1121.45166015625	-297.1754760742188	772.0645141601565	-747.1129760742189	-258.2731933593751	718.9464721679689	-735.5587768554689	-224.5657958984376	720.2607421875001	-738.1575317382814	-282.1611328125001	639.3826904296876	-746.0470581054689	-289.6659851074219	551.6079711914064	-736.7357788085939	-225.3572082519532	534.1399536132814	-860.2340087890627	-242.0452575683594	440.8498535156251	-725.1398315429689	-323.6097717285157	379.5834655761719	-693.6550903320314	-278.6443786621094	367.3877868652344	-695.2610473632814	-266.5360107421876	312.8782043457032	-711.5889282226564	-349.0864868164063	144.5328674316407	-677.1441650390626	-296.7265014648438	148.0464782714844	-757.2017822265626	-406.3637695312501	123.9438400268555	-741.7260131835939	-197.1360931396485	49.67351150512697	-722.7313842773439	-200.4188995361329	51.81653976440431	-674.9427490234376	-257.9606628417969	45.22166442871094	-635.0526123046876	
